<svg width="12.000000" height="12.000000" viewBox="0 0 12 12" fill="none" xmlns="http://www.w3.org/2000/svg" xmlns:xlink="http://www.w3.org/1999/xlink">
	<desc>
			Created with Pixso.
	</desc>
	<defs/>
	<path id="Vector" d="M6 0C7.63 0 7.83 0 8.47 0.03C9.11 0.06 9.54 0.16 9.93 0.31C10.32 0.46 10.65 0.67 10.99 1C11.29 1.3 11.53 1.66 11.68 2.06C11.83 2.45 11.93 2.88 11.96 3.52C11.99 4.16 12 4.36 12 6C12 7.63 11.99 7.83 11.96 8.47C11.93 9.11 11.83 9.54 11.68 9.93C11.53 10.33 11.29 10.69 10.99 10.99C10.69 11.29 10.33 11.53 9.93 11.68C9.54 11.83 9.11 11.93 8.47 11.96C7.83 11.99 7.63 12 6 12C4.36 12 4.16 11.99 3.52 11.96C2.88 11.93 2.45 11.83 2.06 11.68C1.66 11.53 1.3 11.29 1 10.99C0.7 10.69 0.46 10.33 0.31 9.93C0.16 9.54 0.06 9.11 0.03 8.47C0 7.83 0 7.63 0 6C0 4.36 0 4.16 0.03 3.52C0.06 2.88 0.16 2.45 0.31 2.06C0.46 1.66 0.7 1.3 1 1C1.3 0.7 1.66 0.46 2.06 0.31C2.45 0.16 2.88 0.06 3.52 0.03C4.16 0 4.36 0 6 0ZM6 3C5.2 3 4.44 3.31 3.87 3.87C3.31 4.44 3 5.2 3 6C3 6.79 3.31 7.55 3.87 8.12C4.44 8.68 5.2 9 6 9C6.79 9 7.55 8.68 8.12 8.12C8.68 7.55 9 6.79 9 6C9 5.2 8.68 4.44 8.12 3.87C7.55 3.31 6.79 3 6 3ZM9.9 2.84C9.9 2.65 9.82 2.46 9.68 2.31C9.53 2.17 9.34 2.09 9.15 2.09C8.95 2.09 8.76 2.17 8.61 2.31C8.47 2.46 8.4 2.65 8.4 2.84C8.4 3.04 8.47 3.23 8.61 3.38C8.76 3.52 8.95 3.59 9.15 3.59C9.34 3.59 9.53 3.52 9.68 3.38C9.82 3.23 9.9 3.04 9.9 2.84ZM6 4.19C6.47 4.19 6.93 4.38 7.27 4.72C7.61 5.06 7.8 5.52 7.8 6C7.8 6.47 7.61 6.93 7.27 7.27C6.93 7.61 6.47 7.8 6 7.8C5.52 7.8 5.06 7.61 4.72 7.27C4.38 6.93 4.19 6.47 4.19 6C4.19 5.52 4.38 5.06 4.72 4.72C5.06 4.38 5.52 4.19 6 4.19Z" fill="#122659" fill-opacity="1.000000" fill-rule="nonzero"/>
</svg>
