<svg width="15.000000" height="15.000000" viewBox="0 0 15 15" fill="none" xmlns="http://www.w3.org/2000/svg" xmlns:xlink="http://www.w3.org/1999/xlink">
	<desc>
			Created with Pixso.
	</desc>
	<defs/>
	<path id="Vector" d="M7.73 0C9.59 0.25 11.27 1.09 12.6 2.42C13.87 3.69 14.69 5.28 15 7.03L13.84 7.23C13.58 5.72 12.87 4.34 11.78 3.25C10.63 2.11 9.18 1.38 7.57 1.15L7.73 0ZM11.4 9.92C10.91 9.43 10.3 9.43 9.81 9.92C9.44 10.29 9.07 10.65 8.7 11.03C8.6 11.13 8.52 11.15 8.4 11.09C8.16 10.95 7.9 10.85 7.67 10.7C6.59 10.03 5.69 9.16 4.89 8.18C4.49 7.69 4.14 7.17 3.9 6.58C3.85 6.46 3.85 6.38 3.95 6.29C4.32 5.93 4.68 5.56 5.05 5.19C5.56 4.68 5.56 4.08 5.05 3.57C4.76 3.27 4.47 2.99 4.18 2.69C3.88 2.39 3.58 2.09 3.28 1.79C2.79 1.32 2.18 1.32 1.69 1.8C1.31 2.16 0.95 2.54 0.57 2.9C0.22 3.24 0.04 3.65 0.01 4.12C-0.05 4.9 0.14 5.64 0.41 6.35C0.95 7.83 1.79 9.14 2.81 10.35C4.18 11.98 5.81 13.27 7.73 14.2C8.59 14.62 9.48 14.94 10.45 14.99C11.12 15.03 11.7 14.86 12.16 14.34C12.48 13.98 12.84 13.66 13.18 13.32C13.68 12.81 13.68 12.2 13.18 11.7C12.59 11.1 12 10.51 11.4 9.92ZM10.8 7.43L11.95 7.23C11.77 6.18 11.27 5.22 10.52 4.46C9.71 3.65 8.7 3.15 7.58 2.99L7.42 4.15C8.28 4.27 9.07 4.66 9.69 5.28C10.28 5.87 10.66 6.61 10.8 7.43Z" fill="#122659" fill-opacity="1.000000" fill-rule="evenodd"/>
</svg>
