<svg width="14.000000" height="8.000000" viewBox="0 0 14 8" fill="none" xmlns="http://www.w3.org/2000/svg" xmlns:xlink="http://www.w3.org/1999/xlink">
	<desc>
			Created with Pixso.
	</desc>
	<defs/>
	<path id="Vector" d="M6.84 7.96L7.68 7.96C7.68 7.96 7.93 7.93 8.06 7.79C8.18 7.67 8.18 7.43 8.18 7.43C8.18 7.43 8.16 6.3 8.68 6.14C9.2 5.97 9.86 7.22 10.56 7.7C11.08 8.07 11.49 7.99 11.49 7.99L13.36 7.96C13.36 7.96 14.33 7.9 13.87 7.13C13.83 7.07 13.6 6.56 12.48 5.52C11.31 4.43 11.46 4.61 12.88 2.72C13.74 1.57 14.08 0.87 13.97 0.57C13.87 0.29 13.24 0.36 13.24 0.36L11.13 0.37C11.13 0.37 10.98 0.35 10.86 0.42C10.75 0.49 10.68 0.65 10.68 0.65C10.68 0.65 10.34 1.54 9.9 2.29C8.96 3.89 8.59 3.97 8.43 3.87C8.08 3.64 8.17 2.95 8.17 2.45C8.17 0.91 8.4 0.26 7.71 0.09C7.48 0.04 7.31 0 6.73 0C5.98 -0.01 5.34 0 4.98 0.18C4.74 0.29 4.56 0.55 4.67 0.57C4.81 0.59 5.12 0.66 5.29 0.88C5.51 1.18 5.5 1.84 5.5 1.84C5.5 1.84 5.62 3.66 5.21 3.88C4.93 4.04 4.54 3.72 3.7 2.27C3.27 1.53 2.95 0.71 2.95 0.71C2.95 0.71 2.89 0.56 2.78 0.48C2.64 0.38 2.45 0.35 2.45 0.35L0.45 0.36C0.45 0.36 0.15 0.37 0.04 0.5C-0.06 0.62 0.03 0.86 0.03 0.86C0.03 0.86 1.6 4.53 3.37 6.38C5 8.07 6.84 7.96 6.84 7.96Z" fill="#122659" fill-opacity="1.000000" fill-rule="evenodd"/>
</svg>
